<svg xmlns="http://www.w3.org/2000/svg" id="canvas" height="760" width="1270" viewBox="-725 445 1270 760" tabindex="0"><g id="misc_node_RSlCDeMWwn" transform="translate(40, 1015)rotate(45)"><line x1="-5" y1="0" x2="5" y2="0" stroke="black"></line><line x1="0" y1="-5" x2="0" y2="5" stroke="black"></line><circle id="virtual_circle_misc_node_RSlCDeMWwn" r="5" stroke="black" fill="white" fill-opacity="0" style="cursor: move;"></circle></g><g id="misc_node_ROa8w5PBqx" transform="translate(355, 975)rotate(45)"><line x1="-5" y1="0" x2="5" y2="0" stroke="black"></line><line x1="0" y1="-5" x2="0" y2="5" stroke="black"></line><circle id="virtual_circle_misc_node_ROa8w5PBqx" r="5" stroke="black" fill="white" fill-opacity="0" style="cursor: move;"></circle></g><g id="misc_node_9xOB_iVtZK" transform="translate(-155, 1025)rotate(45)"><line x1="-5" y1="0" x2="5" y2="0" stroke="black"></line><line x1="0" y1="-5" x2="0" y2="5" stroke="black"></line><circle id="virtual_circle_misc_node_9xOB_iVtZK" r="5" stroke="black" fill="white" fill-opacity="0" style="cursor: move;"></circle></g><g id="misc_node_TnlJ46KWY8" transform="translate(-195, 1010)rotate(45)"><line x1="-5" y1="0" x2="5" y2="0" stroke="black"></line><line x1="0" y1="-5" x2="0" y2="5" stroke="black"></line><circle id="virtual_circle_misc_node_TnlJ46KWY8" r="5" stroke="black" fill="white" fill-opacity="0" style="cursor: move;"></circle></g><g id="misc_node_AIFgEcoZQA" transform="translate(-45, 705)rotate(45)"><line x1="-5" y1="0" x2="5" y2="0" stroke="black"></line><line x1="0" y1="-5" x2="0" y2="5" stroke="black"></line><circle id="virtual_circle_misc_node_AIFgEcoZQA" r="5" stroke="black" fill="white" fill-opacity="0" style="cursor: move;"></circle></g><g id="misc_node_HxRQyNAYLz" transform="translate(-280, 645)scale(2)"><rect fill="#C4D600" x="0" width="35.32535934448242" height="16"></rect><g><text text-anchor="middle" x="17.66267967224121" y="8" font-size="8" fill="#000">无忧线</text><text text-anchor="middle" x="17.66267967224121" y="14" font-size="6" fill="#000">WuYou Line</text></g><rect fill="white" fill-opacity="0" x="0" width="35.32535934448242" height="16" style="cursor: move;"></rect></g><g id="misc_node_1DkGzjebo3" transform="translate(395, 835)scale(2)"><rect fill="#C4D600" x="0" width="34.15499687194824" height="16"></rect><g><text text-anchor="middle" x="17.07749843597412" y="8" font-size="8" fill="#000">无忧线</text><text text-anchor="middle" x="17.07749843597412" y="14" font-size="6" fill="#000">WuYou Line</text></g><rect fill="white" fill-opacity="0" x="0" width="34.15499687194824" height="16" style="cursor: move;"></rect></g><g id="misc_node_F4kF65Zkkf" transform="translate(395, 705)scale(2)"><rect fill="#C5003E" x="0" width="23.31187629699707" height="16"></rect><g><text text-anchor="middle" x="11.655938148498535" y="8" font-size="8" fill="#fff">5号线</text><text text-anchor="middle" x="11.655938148498535" y="14" font-size="6" fill="#fff">Line 5</text></g><rect fill="white" fill-opacity="0" x="0" width="23.31187629699707" height="16" style="cursor: move;"></rect></g><g id="misc_node_VM8D9HDixJ" transform="translate(-330, 645)scale(2)"><rect fill="#C5003E" x="0" width="23.31187629699707" height="16"></rect><g><text text-anchor="middle" x="11.655938148498535" y="8" font-size="8" fill="#fff">5号线</text><text text-anchor="middle" x="11.655938148498535" y="14" font-size="6" fill="#fff">Line 5</text></g><rect fill="white" fill-opacity="0" x="0" width="23.31187629699707" height="16" style="cursor: move;"></rect></g><g id="misc_node_nJJiF0LpvK" transform="translate(-130, 835)scale(2)"><rect fill="#ECA154" x="0" width="23.312501907348633" height="16"></rect><g><text text-anchor="middle" x="11.656250953674316" y="8" font-size="8" fill="#000">3号线</text><text text-anchor="middle" x="11.656250953674316" y="14" font-size="6" fill="#000">Line 3</text></g><rect fill="white" fill-opacity="0" x="0" width="23.312501907348633" height="16" style="cursor: move;"></rect></g><g id="misc_node_5Zo0ycLF8p" transform="translate(395, 595)scale(2)"><rect fill="#ECA154" x="0" width="23.312501907348633" height="16"></rect><g><text text-anchor="middle" x="11.656250953674316" y="8" font-size="8" fill="#000">3号线</text><text text-anchor="middle" x="11.656250953674316" y="14" font-size="6" fill="#000">Line 3</text></g><rect fill="white" fill-opacity="0" x="0" width="23.312501907348633" height="16" style="cursor: move;"></rect></g><g id="misc_node_BTLxGtWLo9" transform="translate(-70, 960)scale(2)"><rect fill="#81312F" x="0" width="27.625" height="16"></rect><g><text text-anchor="middle" x="13.8125" y="8" font-size="8" fill="#fff">14号线</text><text text-anchor="middle" x="13.8125" y="14" font-size="6" fill="#fff">Line 14</text></g><rect fill="white" fill-opacity="0" x="0" width="27.625" height="16" style="cursor: move;"></rect></g><g id="misc_node_3Iclmtst-n" transform="translate(45, 960)scale(2)"><rect fill="#00629B" x="0" width="23.3125" height="16"></rect><g><text text-anchor="middle" x="11.65625" y="8" font-size="8" fill="#fff">2号线</text><text text-anchor="middle" x="11.65625" y="14" font-size="6" fill="#fff">Line 2</text></g><rect fill="white" fill-opacity="0" x="0" width="23.3125" height="16" style="cursor: move;"></rect></g><g id="misc_node_w3Xn9UjToB" transform="translate(45, 925)scale(2)"><rect fill="#F3D03E" x="0" width="23.3125" height="16"></rect><g><text text-anchor="middle" x="11.65625" y="8" font-size="8" fill="#000">1号线</text><text text-anchor="middle" x="11.65625" y="14" font-size="6" fill="#000">Line 1</text></g><rect fill="white" fill-opacity="0" x="0" width="23.3125" height="16" style="cursor: move;"></rect></g><g id="misc_node_CHgywvadc6" transform="translate(45, 730)scale(2)"><rect fill="#F3D03E" x="0" width="23.3125" height="16"></rect><g><text text-anchor="middle" x="11.65625" y="8" font-size="8" fill="#000">1号线</text><text text-anchor="middle" x="11.65625" y="14" font-size="6" fill="#000">Line 1</text></g><rect fill="white" fill-opacity="0" x="0" width="23.3125" height="16" style="cursor: move;"></rect></g><g id="misc_node_6OLk0rYgg6" transform="translate(-60, 925)scale(2)"><rect fill="#00629B" x="0" width="23.3125" height="16"></rect><g><text text-anchor="middle" x="11.65625" y="8" font-size="8" fill="#fff">2号线</text><text text-anchor="middle" x="11.65625" y="14" font-size="6" fill="#fff">Line 2</text></g><rect fill="white" fill-opacity="0" x="0" width="23.3125" height="16" style="cursor: move;"></rect></g><g id="misc_node_coUudQ0QyA" transform="translate(-575, 990)scale(2)"><rect fill="#81312F" x="0" width="27.625" height="16"></rect><g><text text-anchor="middle" x="13.8125" y="8" font-size="8" fill="#fff">14号线</text><text text-anchor="middle" x="13.8125" y="14" font-size="6" fill="#fff">Line 14</text></g><rect fill="white" fill-opacity="0" x="0" width="27.625" height="16" style="cursor: move;"></rect></g><path id="line_ucukearJC8" d="M 100 1000 L 100 937.5 C 100 933.75 100 930 100 930 L 100 930 " fill="none" stroke="#F3D03E" stroke-width="5" stroke-linejoin="round" stroke-linecap="round"></path><path id="line_VLMi_VggvD" d="M 40 1015 L 77.5 1015 C 81.25 1015 87.65165042944955 1012.3483495705505 90.3033008588991 1009.6966991411009 L 100 1000 " fill="none" stroke="#00629B" stroke-width="5" stroke-linejoin="round" stroke-linecap="round"></path><path id="line_xv5qNWC99D" d="M 40 1015 L -2.5 1015 C -6.25 1015 -12.651650429449553 1012.3483495705505 -15.303300858899107 1009.6966991411009 L -25 1000 " fill="none" stroke="#00629B" stroke-width="5" stroke-linejoin="round" stroke-linecap="round"></path><path id="line_-nTw7hRAbI" d="M 100 1000 L 227.5 1000 C 231.25 1000 237.65165042944955 997.3483495705505 240.3033008588991 994.6966991411009 L 385 850 " fill="none" stroke="#ECA154" stroke-width="5" stroke-linejoin="round" stroke-linecap="round"></path><path id="line_KQi3-7t_mn" d="M -25 1000 L 92.5 1000 C 96.25 1000 100 1000 100 1000 L 100 1000 " fill="none" stroke="#ECA154" stroke-width="5" stroke-linejoin="round" stroke-linecap="round"></path><path id="line_xaOHpBPanC" d="M 385 850 L 385 727.5 C 385 723.75 385 720 385 720 L 385 720 " fill="none" stroke="#ECA154" stroke-width="5" stroke-linejoin="round" stroke-linecap="round"></path><path id="line_Le-bs31ayz" d="M 385 720 L 385 612.5 C 385 608.75 385 605 385 605 L 385 605 " fill="none" stroke="#ECA154" stroke-width="5" stroke-linejoin="round" stroke-linecap="round"></path><path id="line_zH36Aqg3WK" d="M 100 1055 L 267.5 1055 C 271.25 1055 277.65165042944955 1052.3483495705505 280.3033008588991 1049.696699141101 L 355 975 " fill="none" stroke="#C4D600" stroke-width="5" stroke-linejoin="round" stroke-linecap="round"></path><path id="line_IdnA_6RvbM" d="M 385 850 L 385 937.5 C 385 941.25 382.34834957055045 947.6516504294495 379.6966991411009 950.3033008588991 L 355 975 " fill="none" stroke="#C4D600" stroke-width="5" stroke-linejoin="round" stroke-linecap="round"></path><path id="line_z82SUbKsZ2" d="M 100 1055 L -12.5 1055 C -16.25 1055 -22.651650429449553 1052.3483495705505 -25.303300858899107 1049.696699141101 L -75 1000 " fill="none" stroke="#C4D600" stroke-width="5" stroke-linejoin="round" stroke-linecap="round"></path><path id="line_pL9kFla12X" d="M -75 745 L -75 992.5 C -75 996.25 -75 1000 -75 1000 L -75 1000 " fill="none" stroke="#C4D600" stroke-width="5" stroke-linejoin="round" stroke-linecap="round"></path><path id="line_8CoCCxBNqt" d="M -155 1025 L -57.5 1025 C -53.75 1025 -47.34834957055045 1022.3483495705505 -44.69669914110089 1019.6966991411009 L -25 1000 " fill="none" stroke="#81312F" stroke-width="5" stroke-linejoin="round" stroke-linecap="round"></path><path id="line_R4DLrn1zxu" d="M -155 1025 L -172.5 1025 C -176.25 1025 -182.65165042944955 1022.3483495705505 -185.3033008588991 1019.6966991411009 L -195 1010 " fill="none" stroke="#81312F" stroke-width="5" stroke-linejoin="round" stroke-linecap="round"></path><path id="line_BIPTt4n1lM" d="M -465 1000 L -212.5 1000 C -208.75 1000 -202.34834957055045 1002.6516504294495 -199.6966991411009 1005.3033008588991 L -195 1010 " fill="none" stroke="#81312F" stroke-width="5" stroke-linejoin="round" stroke-linecap="round"></path><path id="line_osfn1UYbsw" d="M -25 1000 L -67.5 1000 C -71.25 1000 -75 1000 -75 1000 L -75 1000 " fill="none" stroke="#ECA154" stroke-width="5" stroke-linejoin="round" stroke-linecap="round"></path><path id="line_NoDsQtENox" d="M -105 880 L -105 962.5 C -105 966.25 -102.34834957055045 972.6516504294495 -99.6966991411009 975.3033008588991 L -75 1000 " fill="none" stroke="#ECA154" stroke-width="5" stroke-linejoin="round" stroke-linecap="round"></path><path id="line_2sPNNWVENj" d="M 385 720 L 107.5 720 C 103.75 720 100 720 100 720 L 100 720 " fill="none" stroke="#C5003E" stroke-width="5" stroke-linejoin="round" stroke-linecap="round"></path><path id="line_9z5F-UtVPT" d="M 100 930 L 100 837.5 C 100 833.75 100 830 100 830 L 100 830 " fill="none" stroke="#F3D03E" stroke-width="5" stroke-linejoin="round" stroke-linecap="round"></path><path id="line_SNCiUGsy5Y" d="M 100 830 L 100 727.5 C 100 723.75 100 720 100 720 L 100 720 " fill="none" stroke="#F3D03E" stroke-width="5" stroke-linejoin="round" stroke-linecap="round"></path><path id="line_lbUdUbAOIe" d="M 100 720 L -22.5 720 C -26.25 720 -32.65165042944955 717.3483495705505 -35.30330085889911 714.6966991411009 L -45 705 " fill="none" stroke="#C5003E" stroke-width="5" stroke-linejoin="round" stroke-linecap="round"></path><path id="line_D6lBbFX0-Y" d="M -280 687.5 L -70 687.5 C -66.25 687.5 -59.84834957055045 690.1516504294495 -57.19669914110089 692.8033008588991 L -45 705 " fill="none" stroke="#C5003E" stroke-width="5" stroke-linejoin="round" stroke-linecap="round"></path><path id="line_I7NdyA4FC4" d="M -280 692.5 L -135 692.5 C -131.25 692.5 -124.84834957055045 695.1516504294495 -122.1966991411009 697.8033008588991 L -75 745 " fill="none" stroke="#C4D600" stroke-width="5" stroke-linejoin="round" stroke-linecap="round"></path><g id="stn_BJFW0E3s6X"><g transform="translate(100, 1000)rotate(0)"><rect id="stn_core_stn_BJFW0E3s6X" x="-7.5" y="-5" height="10" width="15" ry="5" stroke="black" fill="white" style="cursor: move;"></rect></g><g transform="translate(112, 973)" paint-order="stroke" stroke="rgb(255, 255, 255)" stroke-width="2px"><text text-anchor="start" dominant-baseline="auto" font-family="Arial, SimHei, STHeitiSC-Medium, PingFangSC-Regular, sans-serif">海湾</text><text font-size="10" dy="12" text-anchor="start" dominant-baseline="auto" font-family="Arial, sans-serif">Bay</text></g></g><g id="stn_DCnZfcbzA5" transform="translate(100, 930)"><circle id="stn_core_stn_DCnZfcbzA5" r="5" stroke="black" fill="white" style="cursor: move;"></circle><g transform="translate(12, 0)" paint-order="stroke" stroke="rgb(255, 255, 255)" stroke-width="2px"><text text-anchor="start" dominant-baseline="middle" font-family="Arial, SimHei, STHeitiSC-Medium, PingFangSC-Regular, sans-serif">海湾北</text><text font-size="10" dy="12" text-anchor="start" dominant-baseline="middle" font-family="Arial, sans-serif">Bay North</text></g></g><g id="stn_GNxXup-Nko"><g transform="translate(-25, 1000)rotate(0)"><rect id="stn_core_stn_GNxXup-Nko" x="-7.5" y="-5" height="10" width="15" ry="5" stroke="black" fill="white" style="cursor: move;"></rect></g><g transform="translate(-13, 973)" paint-order="stroke" stroke="rgb(255, 255, 255)" stroke-width="2px"><text text-anchor="start" dominant-baseline="auto" font-family="Arial, SimHei, STHeitiSC-Medium, PingFangSC-Regular, sans-serif">测试2</text><text font-size="10" dy="12" text-anchor="start" dominant-baseline="auto" font-family="Arial, sans-serif">Test 2</text></g></g><g id="stn_vcKNpR0g9b"><g transform="translate(385, 850)rotate(0)"><rect id="stn_core_stn_vcKNpR0g9b" x="-7.5" y="-5" height="10" width="15" ry="5" stroke="black" fill="white" style="cursor: move;"></rect></g><g transform="translate(397, 823)" paint-order="stroke" stroke="rgb(255, 255, 255)" stroke-width="2px"><text text-anchor="start" dominant-baseline="auto" font-family="Arial, SimHei, STHeitiSC-Medium, PingFangSC-Regular, sans-serif">沙村</text><text font-size="10" dy="12" text-anchor="start" dominant-baseline="auto" font-family="Arial, sans-serif">ShaCun</text></g></g><g id="stn_UrQaGmjkf1"><g transform="translate(385, 720)rotate(0)"><rect id="stn_core_stn_UrQaGmjkf1" x="-7.5" y="-5" height="10" width="15" ry="5" stroke="black" fill="white" style="cursor: move;"></rect></g><g transform="translate(397, 693)" paint-order="stroke" stroke="rgb(255, 255, 255)" stroke-width="2px"><text text-anchor="start" dominant-baseline="auto" font-family="Arial, SimHei, STHeitiSC-Medium, PingFangSC-Regular, sans-serif">森林</text><text font-size="10" dy="12" text-anchor="start" dominant-baseline="auto" font-family="Arial, sans-serif">Forest</text></g></g><g id="stn_cmw5_WMK18" transform="translate(385, 605)"><circle id="stn_core_stn_cmw5_WMK18" r="5" stroke="black" fill="white" style="cursor: move;"></circle><g transform="translate(0, -27)" paint-order="stroke" stroke="rgb(255, 255, 255)" stroke-width="2px"><text text-anchor="middle" dominant-baseline="auto" font-family="Arial, SimHei, STHeitiSC-Medium, PingFangSC-Regular, sans-serif">森林中</text><text font-size="10" dy="12" text-anchor="middle" dominant-baseline="auto" font-family="Arial, sans-serif">Forest Middle</text></g></g><g id="stn_BNcFYtuVRB" transform="translate(-75, 745)"><circle id="stn_core_stn_BNcFYtuVRB" r="5" stroke="black" fill="white" style="cursor: move;"></circle><g transform="translate(-12, 0)" paint-order="stroke" stroke="rgb(255, 255, 255)" stroke-width="2px"><text text-anchor="end" dominant-baseline="middle" font-family="Arial, SimHei, STHeitiSC-Medium, PingFangSC-Regular, sans-serif">塘村</text><text font-size="10" dy="12" text-anchor="end" dominant-baseline="middle" font-family="Arial, sans-serif">TangCun</text></g></g><g id="stn_pgckfaLC0q" transform="translate(100, 1055)"><circle id="stn_core_stn_pgckfaLC0q" r="5" stroke="black" fill="white" style="cursor: move;"></circle><g transform="translate(0, 15)" paint-order="stroke" stroke="rgb(255, 255, 255)" stroke-width="2px"><text text-anchor="middle" dominant-baseline="hanging" font-family="Arial, SimHei, STHeitiSC-Medium, PingFangSC-Regular, sans-serif">沙洲</text><text font-size="10" dy="15" text-anchor="middle" dominant-baseline="hanging" font-family="Arial, sans-serif">ShaZhou</text></g></g><g id="stn_f98akR4tOI" transform="translate(-75, 1000)"><circle id="stn_core_stn_f98akR4tOI" r="5" stroke="black" fill="white" style="cursor: move;"></circle><g transform="translate(-12, 0)" paint-order="stroke" stroke="rgb(255, 255, 255)" stroke-width="2px"><text text-anchor="end" dominant-baseline="middle" font-family="Arial, SimHei, STHeitiSC-Medium, PingFangSC-Regular, sans-serif">沙滩</text><text font-size="10" dy="12" text-anchor="end" dominant-baseline="middle" font-family="Arial, sans-serif">Sandy Beach</text></g></g><g id="stn_CrMh7w6PtQ" transform="translate(-465, 1000)"><circle id="stn_core_stn_CrMh7w6PtQ" r="5" stroke="black" fill="white" style="cursor: move;"></circle><g transform="translate(-12, 0)" paint-order="stroke" stroke="rgb(255, 255, 255)" stroke-width="2px"><text text-anchor="end" dominant-baseline="middle" font-family="Arial, SimHei, STHeitiSC-Medium, PingFangSC-Regular, sans-serif">测试3</text><text font-size="10" dy="12" text-anchor="end" dominant-baseline="middle" font-family="Arial, sans-serif">Test 3</text></g></g><g id="stn_ZG9CvoODo3" transform="translate(-105, 880)"><circle id="stn_core_stn_ZG9CvoODo3" r="5" stroke="black" fill="white" style="cursor: move;"></circle><g transform="translate(-12, 0)" paint-order="stroke" stroke="rgb(255, 255, 255)" stroke-width="2px"><text text-anchor="end" dominant-baseline="middle" font-family="Arial, SimHei, STHeitiSC-Medium, PingFangSC-Regular, sans-serif">何记湾火车站</text><text font-size="10" dy="12" text-anchor="end" dominant-baseline="middle" font-family="Arial, sans-serif">HEJI Bay Railway Station</text></g></g><g id="stn_xkffEM0dvd"><g transform="translate(100, 720)rotate(0)"><rect id="stn_core_stn_xkffEM0dvd" x="-7.5" y="-5" height="10" width="15" ry="5" stroke="black" fill="white" style="cursor: move;"></rect></g><g transform="translate(100, 693)" paint-order="stroke" stroke="rgb(255, 255, 255)" stroke-width="2px"><text text-anchor="middle" dominant-baseline="auto" font-family="Arial, SimHei, STHeitiSC-Medium, PingFangSC-Regular, sans-serif">生态公园</text><text font-size="10" dy="12" text-anchor="middle" dominant-baseline="auto" font-family="Arial, sans-serif">Eco-Park</text></g></g><g id="stn_XhsgXh9INg" transform="translate(100, 830)"><circle id="stn_core_stn_XhsgXh9INg" r="5" stroke="black" fill="white" style="cursor: move;"></circle><g transform="translate(12, 0)" paint-order="stroke" stroke="rgb(255, 255, 255)" stroke-width="2px"><text text-anchor="start" dominant-baseline="middle" font-family="Arial, SimHei, STHeitiSC-Medium, PingFangSC-Regular, sans-serif">旺林</text><text font-size="10" dy="12" text-anchor="start" dominant-baseline="middle" font-family="Arial, sans-serif">WangLing</text></g></g><g id="stn_QRR1xCYch1"><g transform="translate(-280, 690)rotate(90)"><rect id="stn_core_stn_QRR1xCYch1" x="-7.5" y="-5" height="10" width="15" ry="5" stroke="black" fill="white" style="cursor: move;"></rect></g><g transform="translate(-292, 690)" paint-order="stroke" stroke="rgb(255, 255, 255)" stroke-width="2px"><text text-anchor="end" dominant-baseline="middle" font-family="Arial, SimHei, STHeitiSC-Medium, PingFangSC-Regular, sans-serif">未知车站</text><text font-size="10" dy="12" text-anchor="end" dominant-baseline="middle" font-family="Arial, sans-serif">Unknow</text></g></g></svg>