<svg version="1.1" xmlns="http://www.w3.org/2000/svg" xmlns:xlink="http://www.w3.org/1999/xlink" width="125.71669" height="161.94878" viewBox="0,0,125.71669,161.94878"><g transform="translate(-177.62542,-99.18124)"><g data-paper-data="{&quot;isPaintingLayer&quot;:true}" fill="none" fill-rule="nonzero" stroke="none" stroke-width="1" stroke-linecap="butt" stroke-linejoin="miter" stroke-miterlimit="10" stroke-dasharray="" stroke-dashoffset="0" font-family="none" font-weight="none" font-size="none" text-anchor="none" style="mix-blend-mode: normal"><g id="tail"><path d="M182.8565,209.41139c-5.05837,-2.9761 -6.73863,-9.50252 -3.75296,-14.57716c2.98567,-5.07464 9.50666,-6.77584 14.56503,-3.79974c5.05837,2.9761 6.73863,9.50252 3.75296,14.57716c-2.98567,5.07464 -9.50666,6.77584 -14.56503,3.79974z" id="Oval" fill="#ffffff"/><path d="M186.0097,203.9144c0.542,0 1.0841,0 1.6262,0c0.8131,0 0.8131,1.2607 0,1.2607c-0.5421,0 -1.0842,0 -1.6262,0c-0.8131,0 -0.8131,-1.2607 0,-1.2607z" id="Shape" fill="#cbd7d4"/><path d="M185.4676,207.4265c0.5421,-0.09 1.0841,-0.2701 1.6262,-0.4503c0.8131,-0.2701 1.0841,0.9006 0.3614,1.1708c-0.5421,0.1801 -1.0842,0.2701 -1.6262,0.4502c-0.8131,0.1801 -1.1745,-0.9906 -0.3614,-1.1707z" id="Shape" fill="#cbd7d4"/><path d="M184.9255,198.9613c0.2711,-0.2701 0.6324,-0.1801 0.9035,0c0,-0.09 0.1807,0.0901 0.1807,0.0901c0.0903,0.09 0.1806,0.09 0.271,0.1801c0.271,0.1801 0.4517,0.2702 0.6324,0.3602c0.3614,0.1801 0.7228,0.3602 1.0841,0.4503c0.7228,0.1801 0.4518,1.3508 -0.3613,1.1707c-0.9035,-0.2702 -1.8973,-0.8105 -2.62,-1.3508c-0.2711,-0.2702 -0.1807,-0.7205 -0.0904,-0.9006z" id="Shape" fill="#cbd7d4"/><path d="M187.8166,196.3497c0.271,-0.2701 0.6324,-0.1801 0.9034,0c0.5421,0.4503 0.9938,0.9006 1.5359,1.2608c0.1807,0.1801 0.3613,0.4503 0.1807,0.8105c-0.0904,0.1801 -0.5421,0.3602 -0.8132,0.1801c-0.6324,-0.4503 -1.2648,-0.9906 -1.8068,-1.4409c-0.2711,-0.1801 -0.1807,-0.6304 0,-0.8105z" id="Shape" fill="#cbd7d4"/><path d="M192.4241,194.0983c0.0904,0.5404 0.4518,0.9907 0.8131,1.3509c0.5421,0.5403 -0.3613,1.4409 -0.9034,0.9005c-0.5421,-0.5403 -0.9938,-1.1707 -1.1745,-1.8911c-0.1807,-0.8105 0.9938,-1.0807 1.2648,-0.3603z" id="Shape" fill="#cbd7d4"/><path d="M195.9476,195.8994c0.1807,0.4503 0.3614,0.9006 0.6324,1.3509c0.3614,0.7204 -0.7228,1.3508 -1.0841,0.6304c-0.2711,-0.5404 -0.5421,-1.0807 -0.7228,-1.621c-0.1807,-0.7205 0.9938,-1.0807 1.1745,-0.3603z" id="Shape" fill="#cbd7d4"/><path d="M180.589,200.4022c0.7227,0.2702 1.4455,0.4503 2.1682,0.7205c0.3614,0.09 0.5421,0.3602 0.4518,0.7204c0,0.2702 -0.4518,0.5403 -0.7228,0.4503c-0.8131,-0.3603 -1.6262,-0.5404 -2.4393,-0.9006c-0.7228,-0.3602 -0.0903,-1.3508 0.5421,-0.9906z" id="Shape" fill="#cbd7d4"/><path d="M180.3179,196.2597c0.0904,-0.2702 0.5421,-0.3603 0.8131,-0.1801c0.7228,0.4502 1.3552,0.9906 1.9876,1.4408c0.2711,0.2702 0.1807,0.7205 0,0.9006c-0.271,0.2702 -0.6324,0.1801 -0.9034,0c-0.5421,-0.4503 -1.1745,-0.9006 -1.7166,-1.2608c-0.271,-0.2701 -0.3614,-0.5403 -0.1807,-0.9005z" id="Shape" fill="#cbd7d4"/><path d="M184.2931,193.1978c0.7228,0.7204 1.3552,1.5309 2.1683,2.0713c0.6324,0.4502 0,1.5309 -0.6324,1.0806c-0.9035,-0.6304 -1.6262,-1.4409 -2.4393,-2.2514c-0.5421,-0.6303 0.271,-1.4408 0.9034,-0.9005z" id="Shape" fill="#cbd7d4"/><path d="M187.9069,190.8564c0.0903,0.1801 0.271,0.3602 0.4517,0.5403c0.5421,0.6304 -0.3614,1.4409 -0.9034,0.9005c-0.0904,-0.1801 -0.2711,-0.3602 -0.4518,-0.5403c-0.542,-0.5403 0.3614,-1.4409 0.9035,-0.9005z" id="Shape" fill="#cbd7d4"/><path d="M180.3179,205.3552c0.6324,0 1.3552,0 1.9876,0c0.8131,0 0.8131,1.2608 0,1.2608c-0.6324,0 -1.3552,0 -1.9876,0c-0.8131,0 -0.8131,-1.2608 0,-1.2608z" id="Shape" fill="#cbd7d4"/><path d="M189.9848,203.5541c0.7228,0.0901 1.4455,0.1802 2.1683,0.2702c0.3614,0 0.5421,0.4503 0.4517,0.7205c-0.0903,0.3602 -0.3614,0.5403 -0.7227,0.4502c-0.5421,-0.09 -1.1745,-0.1801 -1.8069,-0.1801c-0.8131,-0.09 -0.8131,-1.2608 -0.0904,-1.2608z" id="Shape" fill="#cbd7d4"/><path d="M190.5269,207.0663c0.1807,0 0.4517,-0.0901 0.6324,-0.1801c0.271,-0.0901 0.6324,0.1801 0.7228,0.4503c0.0903,0.2701 -0.1807,0.6304 -0.4518,0.7204c-0.3613,0.0901 -0.6324,0.1801 -0.9937,0.1801c-0.8132,0.0901 -0.8132,-1.1707 0.0903,-1.1707z" id="Shape" fill="#cbd7d4"/><path d="M190.7979,200.042c0.2711,-0.1801 0.6324,-0.0901 0.8131,0.1801c0.3614,0.5403 0.8131,1.0807 1.3552,1.5309c0.5421,0.5404 -0.3614,1.4409 -0.9034,0.9006c-0.6325,-0.5403 -1.1745,-1.1707 -1.6262,-1.8011c-0.2711,-0.2702 -0.0904,-0.6304 0.3613,-0.8105z" id="Shape" fill="#cbd7d4"/><path d="M194.3214,198.8713c0.1807,0.2701 0.3614,0.5403 0.542,0.8105c0.3614,0.7204 -0.6324,1.3508 -1.0841,0.6304c-0.1807,-0.2702 -0.3614,-0.5404 -0.5421,-0.8105c-0.4517,-0.6304 0.6325,-1.2608 1.0842,-0.6304z" id="Shape" fill="#cbd7d4"/></g><path d="M261.7186,216.1619c-0.7227,-3.7823 -0.4517,-7.5647 0.0904,-11.437c1.1744,-8.4652 20.5986,-21.6133 22.8572,-13.8685c2.349,8.195 1.4455,22.2436 -1.3552,30.7088c-1.3551,4.1425 2.8007,15.2193 2.8007,15.2193l6.6855,2.0713c1.4456,1.1707 2.8911,2.4315 3.1621,4.2326c0.271,1.4409 -2.4393,2.4315 -6.0531,0.1801c2.349,2.7917 -0.9938,2.7917 -3.1621,2.5216c-5.24,-0.5404 -10.48,-6.6641 -11.3834,-7.9249c-2.7104,-3.5122 -12.0159,-13.5983 -13.6421,-21.7033z" id="Shape" fill="#ffffff"/><path d="M221.6959,240.6569c-4.698,-4.7729 2.1682,-5.5834 1.8972,-10.1762c-0.5421,-8.5553 -16.8041,-11.347 -15.449,-22.2437c1.2649,-10.1762 18.7014,-12.5177 25.7483,-12.0674c9.4862,0.6304 18.4304,5.2232 25.929,11.7072c5.511,4.7729 6.5952,11.9773 1.1745,16.8403c-5.0593,4.5928 -9.8476,6.5741 -15.0876,10.6265c3.7945,2.0713 10.48,-0.7204 14.9069,-0.6303c1.4455,0 3.8848,-0.7205 5.9627,-0.2702c2.349,0.4503 4.1559,2.2514 5.4207,3.5121c3.3428,3.152 -3.162,3.3321 -5.4207,3.6023c13.3711,4.1425 -18.7013,4.1425 -22.7669,3.1519c0,0.09 -20.4179,-2.0713 -22.3151,-4.0525z" id="Shape" fill="#ffffff"/><path d="M264.2483,229.6702c-4.7883,6.7541 -22.7669,16.6602 -30.5366,18.011c-12.6483,2.2514 -40.0227,-4.7729 -42.0103,-28.1873c-2.078,-24.1348 17.8883,-42.2359 41.1069,-42.416c23.2186,-0.1801 24.6641,2.3414 27.1938,-5.3133c0.7227,-2.3414 5.1496,-11.9773 5.9627,-14.2287c1.3552,-3.7823 13.1904,2.2514 17.0752,2.1613c9.1248,-0.1801 5.0593,-11.437 13.2807,9.6359c7.4083,18.9117 3.0717,37.8233 -12.4676,51.8719z" id="Shape" fill="#ffffff"/><g id="pwa_front1"><path d="M252.5938,225.9779c-0.5421,-3.7823 0.0903,-7.6547 0.8131,-11.437c1.7165,-8.3752 32.5241,-23.2343 34.1503,-15.3094c1.8069,8.3751 -9.9379,29.6282 -13.4613,33.6807c-2.8007,3.332 2.3489,12.9679 2.3489,12.9679l7.2276,3.8724c1.3552,1.2608 1.8973,3.6022 1.1745,4.953c-0.6324,1.3509 -2.5297,1.7111 -5.9628,-0.7204c2.1683,2.9718 -1.1744,2.6116 -3.3427,2.3414c-5.5111,-0.6304 -10.1186,-6.3939 -10.9317,-7.6547c-2.1683,-3.7823 -10.9318,-14.4989 -12.0159,-22.6939z" id="Shape" fill="#ffffff"/><path d="M278.6131,255.8762c-0.3614,-1.711 -1.6262,-3.1519 -3.2524,-3.8723c-0.7228,-0.3603 -0.0904,-1.4409 0.6324,-1.0807c1.8972,0.8105 3.3428,2.6116 3.7945,4.5928c0.1807,0.7205 -0.9938,1.0807 -1.1745,0.3602z" id="Shape" fill="#b5c5c1"/></g><g id="head_x2B_ears"><g id="ears" fill="#ffffff"><path d="M282.6786,164.4702c-9.9379,-4.0525 -20.7793,-28.0072 -24.122,-38.5437c-3.6138,-11.3469 -2.7104,-26.5663 -2.7104,-26.5663c5.4207,-2.3414 17.6172,18.9116 21.3214,27.5569c5.4207,12.6078 12.7386,26.8365 14.6358,40.705z" id="Shape"/><path d="M275.9028,157.1757c-12.6483,6.6641 -32.3435,1.2608 -45.8049,-3.7823c-3.7945,-1.4409 -8.2213,-4.0525 -12.5579,-7.0243c-5.9628,-4.2326 -11.7448,-9.2757 -15.2683,-13.3282c-5.4207,-6.1238 27.2842,-2.7017 36.7704,0.5403c15.9007,5.4934 34.5117,12.7879 45.7145,24.495z" id="Shape"/></g><g id="head"><path d="M294.6041,186.6238c-6.7758,4.3226 -15.991,-0.3603 -23.851,-2.8818c-15.8103,-5.0431 -20.0565,-34.221 1.1745,-41.1553c19.4241,-6.3939 31.5303,19.542 29.7234,32.7802c-1.8069,13.2381 -7.0469,11.2569 -7.0469,11.2569z" id="Shape" fill="#b5c5c1"/><path d="M269.0366,185.7232c-11.6545,-9.9961 -15.449,-35.0315 4.2462,-43.2265c19.6048,-8.105 31.982,18.011 29.8138,32.9602c0,0 -1.1745,10.8967 -10.9318,14.9492c-10.751,4.4127 -14.0938,3.0619 -23.1282,-4.6829z" id="Shape" fill="#ffffff"/><g id="face"><g id="Group"><path d="M268.00237,167.13714c-0.29189,-1.3617 0.3416,-2.65209 1.41495,-2.88217c1.07334,-0.23008 2.18009,0.68727 2.47198,2.04897c0.29189,1.3617 -0.3416,2.65209 -1.41495,2.88217c-1.07334,0.23008 -2.18009,-0.68727 -2.47198,-2.04897z" id="Oval" fill="#3c4f45"/><g id="Shape"><g fill="#3c4f45"><path d="M287.6476,175.1867c0.4517,0.1802 1.3552,0.5404 1.8069,0.3603c0.3614,-0.1801 0.3614,-0.6304 0.4517,-0.9906c0.271,-0.8105 1.5359,-0.4503 1.2648,0.3602c-0.271,0.8105 -0.3613,1.5309 -1.2648,1.8911c-0.9938,0.3603 -2.1683,-0.09 -2.9814,-0.4502c-0.8131,-0.3603 -0.0903,-1.531 0.7228,-1.1708z"/><path d="M290.0869,175.9972c0.3614,1.531 0.6324,3.242 0.4517,4.863c-0.0903,0.8105 -1.4455,0.9006 -1.3552,0c0.0904,-1.5309 -0.0903,-3.0619 -0.4517,-4.5027c-0.271,-0.8105 1.0842,-1.1708 1.3552,-0.3603z"/><path d="M287.2862,179.8696c0.9938,1.0807 3.7041,0.5403 4.5172,-0.4503c0.4518,-0.7204 1.4456,0.2702 0.9035,0.9006c-1.2648,1.5309 -4.969,1.9812 -6.4145,0.4503c-0.5421,-0.6304 0.3614,-1.621 0.9938,-0.9006z"/></g><path d="M277.6193,175.3669c-1.5359,0.1801 -3.0717,0.7204 -4.4269,1.5309c-0.7227,0.3602 -1.3552,-0.7205 -0.6324,-1.0807c1.5359,-0.9005 3.2524,-1.5309 5.0593,-1.711c0.8131,-0.0901 0.8131,1.0806 0,1.2608z" fill="#b5c5c1"/><path d="M276.2641,179.1492c-1.1744,0.5403 -2.3489,1.1707 -3.3427,1.8911c-0.6324,0.4503 -1.2648,-0.6304 -0.6324,-1.0806c1.0841,-0.8105 2.1682,-1.3509 3.3427,-1.8912c0.6324,-0.3602 1.2649,0.7204 0.6324,1.0807z" fill="#b5c5c1"/><path d="M297.3145,170.3238c1.1745,-0.5404 2.4393,-0.9907 3.6138,-1.4409c0.8131,-0.2702 1.0841,0.9005 0.3614,1.1707c-1.0842,0.3602 -2.2587,0.8105 -3.3428,1.2608c-0.7228,0.2701 -1.3552,-0.8105 -0.6324,-0.9906z" fill="#b5c5c1"/><path d="M298.76,172.305c0.7228,0 1.5359,-0.0901 2.2586,-0.0901c0.8131,0 0.8131,1.2608 0,1.2608c-0.7227,0 -1.5358,0.09 -2.2586,0.09c-0.8131,0 -0.8131,-1.1707 0,-1.2607z" fill="#b5c5c1"/><path d="M280.2393,179.5094c-0.9034,0.9906 -1.8972,2.0713 -2.8007,3.1519c-0.542,0.5404 -1.4455,-0.2701 -0.9034,-0.9005c0.9034,-1.0807 1.8069,-2.0713 2.8007,-3.152c0.542,-0.5403 1.4455,0.2702 0.9034,0.9006z" fill="#b5c5c1"/><path d="M298.76,174.5564c0.8131,0.1801 1.5359,0.5403 2.4393,0.4502c0.8131,-0.09 0.8131,1.1707 0,1.2608c-0.9938,0.0901 -1.8972,-0.3602 -2.8007,-0.5403c-0.7227,-0.1801 -0.4517,-1.3509 0.3614,-1.1707z" fill="#b5c5c1"/></g><path d="M293.249,160.6878c1.2648,0.1802 2.5296,-0.1801 3.0717,-1.4408c0.3614,-0.8105 1.5359,-0.1801 1.1745,0.6303c-0.8131,1.8912 -2.7104,2.3415 -4.6076,2.0713c-0.9035,-0.09 -0.5421,-1.3508 0.3614,-1.2608z" id="Shape" fill="#3c4f45"/></g><path d="M264.971,159.6072c-0.271,-1.8011 1.5359,-3.7823 3.3428,-3.6923c0.8131,0.0901 0.8131,1.2608 0,1.2608c-0.6324,0 -1.1745,0.2702 -1.6262,0.8105c-0.271,0.3602 -0.6324,0.9005 -0.5421,1.3508c0.1807,0.8105 -0.9938,1.0807 -1.1745,0.2702z" id="Shape" fill="#b5c5c1"/><path d="M290.2676,152.3127c1.2648,-0.7204 2.4393,-0.9906 3.9752,-0.5403c0.7227,0.2701 0.3613,1.4409 -0.3614,1.1707c-1.2648,-0.3602 -1.9876,-0.1801 -3.0717,0.4503c-0.6325,0.4502 -1.2649,-0.6304 -0.5421,-1.0807z" id="Shape" fill="#b5c5c1"/></g></g></g><g id="paw_back1"><path d="M205.8855,253.4448c-4.3365,-5.1332 2.62,-5.4034 2.7104,-9.9962c0.1807,-8.5552 -15.3587,-17.0204 -13.1904,-27.8271c2.0779,-10.0861 18.7014,-9.1856 25.5676,-8.1049c9.3959,1.3508 20.8697,11.437 27.8262,18.5514c5.0593,5.2232 5.6014,12.4276 -0.1807,16.8403c-5.4207,4.1425 -12.6483,3.6022 -18.2496,7.2044c3.6138,2.3414 10.48,0.0901 14.9069,0.6304c1.4455,0.1801 3.9751,-0.3602 5.9627,0.1801c2.2586,0.6304 3.8848,2.6116 5.1497,3.9624c3.0717,3.4221 -3.4331,3.152 -5.6917,3.152c13.0096,5.1331 -18.9725,2.6116 -22.9476,1.3508c0.0903,0 -20.0566,-3.8724 -21.8635,-5.9436z" id="Shape" fill="#ffffff"/><g id="Group" fill="#b5c5c1"><path d="M208.3248,207.2464c2.349,-0.4503 5.24,-0.7204 8.8538,-0.9005c9.8476,-0.5404 23.309,6.574 29.9945,18.011c-7.0469,-6.9342 -17.5269,-15.5796 -26.1097,-16.8403c-3.0717,-0.4503 -7.9503,-0.9006 -12.7386,-0.2702z" id="Shape"/><path d="M248.98,256.5967c0.9034,0.1801 1.8972,0.4503 2.8007,0.9005c0.9034,0.4503 1.5359,1.2608 2.1683,2.0713c0.4517,0.6304 -0.6324,1.2608 -1.0842,0.6304c-1.0841,-1.4409 -2.4393,-2.0713 -4.2462,-2.4315c-0.7227,-0.0901 -0.4517,-1.3508 0.3614,-1.1707z" id="Shape"/></g></g></g></g></svg>