<svg version="1.1" xmlns="http://www.w3.org/2000/svg" xmlns:xlink="http://www.w3.org/1999/xlink" width="159.36851" height="142.10528" viewBox="0,0,159.36851,142.10528"><g transform="translate(-160.77822,-103.68026)"><g data-paper-data="{&quot;isPaintingLayer&quot;:true}" fill="none" fill-rule="nonzero" stroke="none" stroke-width="1" stroke-linecap="butt" stroke-linejoin="miter" stroke-miterlimit="10" stroke-dasharray="" stroke-dashoffset="0" font-family="none" font-weight="none" font-size="none" text-anchor="none" style="mix-blend-mode: normal"><path d="M186.3536,195.995c0.9894,-6.6554 5.7565,-1.6189 9.1743,-4.5868c6.476,-5.5761 2.5185,-22.7541 12.0525,-28.2403c8.9045,-5.1264 21.2269,7.3749 25.0945,13.1308c5.2167,7.8246 3.3279,20.4158 2.6983,30.3088c-0.5397,7.285 -5.5766,12.4114 -12.6821,11.0623c-6.7458,-1.2591 -11.1531,-3.8673 -17.5391,-5.5761c0.6296,4.2271 6.8357,7.8245 9.4441,11.422c0.8095,1.1692 2.8782,2.6981 3.7776,4.4969c0.9894,2.1585 0.6297,4.6767 0.4498,6.4754c-0.5397,4.5868 -4.5872,-0.4496 -6.1162,-2.1584c4.767,13.1308 -14.571,-12.3214 -16.19,-16.1887c-0.0899,0 -10.6134,-17.4478 -10.1637,-20.1459z" id="Shape" fill="#ffffff"/><path d="M259.6581,203.8195c-1.8888,-3.3277 -2.8782,-7.0151 -3.5978,-10.8824c-1.619,-8.3641 20.2375,-12.861 24.8246,-6.2956c4.857,7.0151 2.8782,10.1629 1.2592,15.1994c-1.3491,4.1371 7.2855,12.5912 7.2855,12.5912c0,0 4.5872,-1.2591 6.2961,-0.5396c1.7089,0.7194 3.7777,2.2484 4.6771,3.9572c0.7195,1.349 -1.3492,3.5075 -5.4866,2.6082c3.148,1.8886 -0.3598,2.3383 -2.5184,2.5182c-4.1375,0.3597 -11.7827,-1.9786 -13.0419,-2.878c-3.5079,-2.6082 -15.5604,-9.1736 -19.6978,-16.2786z" id="Shape" fill="#ffffff"/><g id="paw_front1"><path d="M254.3514,214.4321c-0.8994,-3.1478 -0.8095,-6.4755 -0.4497,-9.8032c0.7195,-7.2849 37.9564,-8.9937 40.5648,-2.4283c2.6983,6.9252 -15.0207,12.0516 -17.9888,15.9189c-2.4285,3.1478 3.5977,11.2421 3.5977,11.2421c0,0 6.476,0.2698 7.9151,1.2592c1.4391,0.9893 2.0687,3.6874 1.619,4.8566c-0.5397,1.2591 -2.3386,1.7987 -6.0263,0c2.5185,2.3383 -0.9893,2.6981 -3.0581,2.3383c-4.0474,-0.6295 -10.7033,-4.4069 -11.6927,-5.3962c-2.6983,-2.878 -12.5022,-11.0623 -14.481,-17.9874z" id="Shape" fill="#ffffff"/><path d="M283.4933,236.9164c-0.8095,-1.2592 -2.2486,-2.4283 -3.7777,-2.3384c-0.8095,0 -0.8095,-1.1692 0,-1.2591c1.9788,-0.1799 3.7777,1.349 4.857,2.878c0.4497,0.7195 -0.6296,1.2591 -1.0793,0.7195z" id="Shape" fill="#b5c5c1"/></g><g id="tail"><path d="M198.676,147.6987c2.2486,5.3963 -0.2699,11.6019 -5.6665,13.8504c-5.3967,2.2484 -11.6927,-0.2699 -13.9413,-5.6661c-2.2486,-5.3962 0.2698,-11.6019 5.6664,-13.8503c5.3967,-2.2484 11.6928,0.2698 13.9414,5.666z" id="Shape" fill="#ffffff"/><path d="M184.0151,153.5447c0.0899,-0.1799 0.5396,-0.3598 0.8095,-0.1799c0.4497,0.3597 0.8994,0.6295 1.3491,0.9893c0.2699,0.1799 0.3598,0.5396 0.1799,0.8094c-0.0899,0.1799 -0.5396,0.3598 -0.8095,0.1799c-0.4497,-0.3598 -0.8994,-0.6296 -1.3491,-0.9893c-0.2699,-0.1799 -0.4497,-0.5396 -0.1799,-0.8094z" id="Shape" fill="#cbd7d4"/><path d="M181.6765,156.3327c0,-0.3597 0.4498,-0.5396 0.7196,-0.4497c0.5397,0.1799 1.0793,0.3598 1.619,0.5396c0.7195,0.2699 0.3598,1.439 -0.3598,1.1692c-0.5397,-0.1799 -1.0793,-0.3597 -1.619,-0.5396c-0.3598,-0.1799 -0.5397,-0.4497 -0.3598,-0.7195z" id="Shape" fill="#cbd7d4"/><path d="M187.7028,149.2277c0.1799,0.7195 0.6296,1.5289 1.0793,2.1585c0.2699,0.2698 0.09,0.6295 -0.1799,0.8094c-0.2698,0.1799 -0.6296,0.0899 -0.8095,-0.1799c-0.5396,-0.6295 -0.9893,-1.6188 -1.2592,-2.4283c-0.1799,-0.7195 0.9894,-1.0792 1.1693,-0.3597z" id="Shape" fill="#cbd7d4"/><path d="M191.5704,148.8679c0.1799,0.7195 0.3598,1.439 0.5397,2.0686c0.2698,0.8094 -0.9894,1.0792 -1.1693,0.3597c-0.1799,-0.7195 -0.3598,-1.349 -0.5397,-2.0685c-0.1799,-0.8095 0.9894,-1.1692 1.1693,-0.3598z" id="Shape" fill="#cbd7d4"/><path d="M195.7978,149.3176c-0.1799,0.5396 -0.2699,1.0793 -0.1799,1.6189c0,0.2698 -0.09,0.6295 -0.4497,0.7195c-0.2699,0.0899 -0.6297,-0.09 -0.7196,-0.4497c-0.0899,-0.8094 -0.0899,-1.5289 0.1799,-2.2484c0.2698,-0.7195 1.4391,-0.4497 1.1693,0.3597z" id="Shape" fill="#cbd7d4"/><path d="M197.6866,152.8252c-0.1799,0.4496 -0.2698,0.9893 -0.3598,1.439c-0.0899,0.3597 -0.2698,0.6295 -0.6296,0.6295c-0.3598,0 -0.6296,-0.2698 -0.6296,-0.6295c0.0899,-0.5397 0.1799,-1.1692 0.3598,-1.7089c0.2698,-0.7195 1.4391,-0.4496 1.2592,0.2699z" id="Shape" fill="#cbd7d4"/><path d="M182.6659,147.339c0.3598,0.8094 0.8995,1.3491 1.3492,2.0685c0.3598,0.7195 -0.6296,1.3491 -1.0793,0.6296c-0.4498,-0.7195 -0.9894,-1.349 -1.3492,-2.0685c-0.2698,-0.7195 0.7195,-1.3491 1.0793,-0.6296z" id="Shape" fill="#cbd7d4"/><path d="M185.724,144.2811c0.1799,0.7195 0.4497,1.439 0.6296,2.1585c0.2699,0.8095 -0.9894,1.1692 -1.1692,0.3598c-0.1799,-0.7195 -0.3598,-1.439 -0.6297,-2.1585c-0.2698,-0.7195 0.8995,-1.0793 1.1693,-0.3598z" id="Shape" fill="#cbd7d4"/><path d="M189.8615,143.6516c0.0899,0.9893 0.2698,2.0685 0.5396,3.0578c0.2698,0.8095 -0.8994,1.0793 -1.1693,0.3598c-0.2698,-0.9893 -0.3597,-1.9786 -0.5396,-3.0579c-0.09,-0.7195 1.0793,-1.0792 1.1693,-0.3597z" id="Shape" fill="#cbd7d4"/><path d="M193.4592,143.6516c0.2699,-0.09 0.6296,0.0899 0.7196,0.4497c0,0.2698 0.0899,0.4496 0.0899,0.7195c0,0.2698 -0.0899,0.6295 -0.4497,0.7195c-0.2698,0.0899 -0.6296,-0.09 -0.7196,-0.4497c0,-0.2698 -0.0899,-0.4497 -0.0899,-0.7195c-0.0899,-0.3598 0,-0.7195 0.4497,-0.7195z" id="Shape" fill="#cbd7d4"/><path d="M178.6184,151.3862c0.09,-0.1799 0.5397,-0.3598 0.8095,-0.1799c0.5397,0.3597 1.0794,0.8094 1.619,1.1692c0.2699,0.1798 0.3598,0.5396 0.1799,0.8094c-0.0899,0.1799 -0.5396,0.3598 -0.8095,0.1799c-0.5396,-0.3598 -1.0793,-0.8095 -1.619,-1.1692c-0.2698,-0.1799 -0.3598,-0.4497 -0.1799,-0.8094z" id="Shape" fill="#cbd7d4"/><path d="M187.5229,155.5233c0.2698,-0.2698 0.6296,-0.1799 0.8994,0c0.4498,0.3597 0.9894,0.8993 1.4392,1.349c0.5396,0.5396 -0.3598,1.439 -0.8995,0.8994c-0.4497,-0.4497 -0.8994,-0.8994 -1.4391,-1.3491c-0.1799,-0.1798 -0.1799,-0.6295 0,-0.8993z" id="Shape" fill="#cbd7d4"/><path d="M185.724,158.6711c0.09,-0.2698 0.5397,-0.3598 0.8095,-0.1799c0.1799,0.0899 0.3598,0.1799 0.6296,0.2698c0.7196,0.1799 0.4497,1.3491 -0.3597,1.1692c-0.3598,-0.0899 -0.6297,-0.2698 -0.8995,-0.4497c-0.2698,-0.1799 -0.4497,-0.4497 -0.1799,-0.8094z" id="Shape" fill="#cbd7d4"/><path d="M191.4804,153.6346c-0.0899,0.6296 0,1.349 0.1799,1.9786c0.1799,0.8094 -1.0793,1.1692 -1.1692,0.3598c-0.1799,-0.7195 -0.2699,-1.529 -0.2699,-2.3384c0,-0.8094 1.2592,-0.8094 1.2592,0z" id="Shape" fill="#cbd7d4"/><path d="M193.9089,153.6346c0.3598,0 0.6296,0.2698 0.6296,0.6296c0,0.3597 -0.0899,0.6295 -0.0899,0.9893c-0.0899,0.3597 -0.2698,0.6295 -0.6296,0.6295c-0.3598,0 -0.6296,-0.2698 -0.6296,-0.6295c0,-0.3598 0.0899,-0.6296 0.0899,-0.9893c0,-0.3598 0.1799,-0.6296 0.6296,-0.6296z" id="Shape" fill="#cbd7d4"/></g><path d="M236.9922,218.4792c-8.8145,1.8887 -30.4911,-3.2377 -37.7766,-7.7345c-11.8726,-7.3749 -27.5229,-27.5208 -12.3223,-48.0265c12.5022,-16.9081 48.3899,2.0686 62.1514,5.2164c7.9151,1.7987 19.4279,5.3063 27.0732,0.9893c2.3385,-1.3491 3.3279,-4.0472 5.5765,-5.2164c3.8676,-2.0685 16.5497,-8.6339 19.6978,-5.8459c7.4653,6.4755 19.5179,9.6233 10.7033,32.5573c-7.9151,20.5956 -42.5435,24.8226 -59.0933,27.161z" id="Shape" fill="#ffffff"/><g id="head_x2B_ears"><g id="ears" fill="#ffffff"><path d="M291.1385,160.7396c-13.7614,1.529 -28.5122,-8.2742 -38.0463,-16.0987c-6.476,-5.3063 -13.2218,-16.6384 -15.6503,-23.8334c-2.1587,-6.2956 24.7346,5.756 31.5704,10.9724c11.5128,8.9037 21.6765,20.7754 31.3905,31.388z" id="Shape"/><path d="M302.5615,159.4805c-9.714,-2.1585 -19.5179,-19.7862 -23.2056,-28.0604c-4.0475,-8.9037 -4.7671,-27.5207 -4.7671,-27.5207c5.0369,-2.6082 16.7296,18.7968 20.6872,25.3622c5.8463,9.7132 13.5815,20.4158 16.1899,31.6579z" id="Shape"/></g><g id="head"><path d="M284.4827,182.6843c-10.9732,-8.3642 -11.8726,-30.8485 6.0262,-36.3346c1.0794,-0.2698 2.0688,-0.4497 3.0581,-0.6296c-0.5396,0.09 -1.0793,0.3598 -1.619,0.5396c-17.8089,7.0151 -16.8195,26.2617 -7.4653,36.4246z" id="Shape" fill="#b5c5c1"/><path d="M286.1017,184.2132c-10.7933,-9.5333 -12.862,-30.5786 5.8463,-37.9535c8.9945,-3.5974 16.2799,0.4497 21.1369,7.1051c1.9788,2.6981 3.0581,6.0258 4.6771,8.9937c3.1481,6.2057 2.5184,10.8824 1.7989,15.3792c0,0 -0.8994,4.7667 -3.5978,8.634c-1.619,2.3384 -3.8676,4.317 -6.9257,4.8566c-9.0843,1.439 -14.5709,0.3598 -22.9357,-7.0151z" id="Shape" fill="#ffffff"/><g id="face"><g id="Group"><g id="Shape" fill="#3c4f45"><path d="M314.7039,177.4679c0.4497,0.1799 1.3492,0.4497 1.7989,0.1799c0.3598,-0.1799 0.2698,-0.7195 0.3598,-1.0792c0.2698,-0.7195 1.4391,-0.4497 1.2592,0.3597c-0.1799,0.7195 -0.1799,1.3491 -0.8995,1.7987c-0.7195,0.4497 -1.8888,0.1799 -2.6983,-0.0899c-0.8095,-0.2698 -0.4497,-1.5289 0.1799,-1.1692z"/><path d="M317.3123,178.0075c0.5397,1.439 0.8994,2.968 0.8994,4.4969c0,0.8094 -1.2592,0.8094 -1.2592,0c0,-1.3491 -0.2698,-2.788 -0.8095,-4.1371c-0.3598,-0.7195 0.8995,-1.0793 1.1693,-0.3598z"/><path d="M315.0637,182.1447c0.7195,0.4496 1.7089,0.2698 2.4285,0c0.8095,-0.2699 1.0793,0.9893 0.3598,1.2591c-1.0794,0.3597 -2.4285,0.4497 -3.4179,-0.1799c-0.6296,-0.4497 0,-1.5289 0.6296,-1.0792z"/></g><g id="Shape" fill="#b5c5c1"><path d="M295.9955,177.8277c-1.7089,0 -3.3279,0.2698 -4.857,0.8993c-0.8094,0.2699 -1.0793,-0.8993 -0.3597,-1.1691c1.7089,-0.6296 3.4178,-0.8994 5.2167,-0.8994c0.8095,0 0.8095,1.2591 0,1.1692z"/><path d="M298.0642,179.9862c-2.6083,0.8094 -5.3067,1.5289 -7.6452,2.788c-0.7196,0.3598 -1.3492,-0.7195 -0.6296,-1.0792c2.4285,-1.2592 5.3067,-2.0686 7.9151,-2.878c0.8095,-0.1799 1.0793,0.9893 0.3597,1.1692z"/><path d="M298.0642,182.4145c-1.1692,0.8993 -2.2486,1.7987 -3.3279,2.788c-0.6296,0.5396 -1.529,-0.3597 -0.8994,-0.8994c1.0793,-0.9893 2.2486,-1.8886 3.3279,-2.788c0.5397,-0.5396 1.4391,0.3597 0.8994,0.8994z"/></g></g><g id="Group"><path d="M295.43342,167.42707c-0.59145,-1.31341 -0.26313,-2.7419 0.73333,-3.19062c0.99646,-0.44872 2.28371,0.25224 2.87516,1.56565c0.59145,1.31341 0.26313,2.7419 -0.73333,3.19062c-0.99646,0.44872 -2.28371,-0.25224 -2.87516,-1.56565z" id="Oval" fill="#3c4f45"/><path d="M289.1598,160.5597c0.8095,-1.6188 2.5184,-2.9679 4.4072,-2.6981c0.7196,0.09 0.4498,1.2592 -0.3597,1.1692c-1.2593,-0.1799 -2.4285,1.0793 -2.9682,2.1585c-0.2698,0.7195 -1.3492,0.0899 -1.0793,-0.6296z" id="Shape" fill="#b5c5c1"/></g></g></g></g><g id="paw_back1"><path d="M160.8095,203.1c1.529,-6.5654 5.8464,-1.1692 9.5341,-3.8673c6.9257,-5.0365 4.3173,-22.4843 14.2111,-27.2509c9.2643,-4.407 21.8565,8.3641 25.1844,14.4798c4.5872,8.2742 3.4179,23.4736 1.9788,33.2768c-1.0794,7.1949 -9.8939,12.861 -16.8196,10.8824c-6.5659,-1.7988 -10.4335,-7.9145 -16.7296,-10.073c0.2698,4.317 6.2062,8.3641 8.4548,12.1415c0.7195,1.1692 2.6983,2.878 3.4178,4.8566c0.8995,2.2484 0.2699,4.6767 -0.0899,6.4755c-0.8994,4.4968 -4.4972,-0.8095 -5.9363,-2.6082c3.6877,13.4006 -13.4916,-13.4906 -14.8408,-17.4478c0.0899,0.0899 -8.9944,-18.1673 -8.3648,-20.8654z" id="Shape" fill="#ffffff"/><path d="M197.2369,173.9604c3.148,0.8993 6.386,2.788 10.2536,6.2956c6.1162,5.4861 8.095,21.0453 5.2168,32.1975c0.8095,-8.9938 0.6296,-19.5164 -2.8782,-25.9019c-1.8889,-3.5076 -6.9257,-9.2635 -12.5922,-12.5912z" id="Shape" fill="#b5c5c1"/><path d="M183.6553,239.0748c1.1693,1.7988 1.7089,3.3277 1.4391,5.4862c-0.0899,0.8094 -1.3491,0.8094 -1.2592,0c0.2698,-1.8887 -0.1799,-3.2377 -1.2592,-4.8566c-0.4497,-0.6296 0.6296,-1.2591 1.0793,-0.6296z" id="Shape" fill="#b5c5c1"/></g></g></g></svg>