<svg version="1.1" xmlns="http://www.w3.org/2000/svg" xmlns:xlink="http://www.w3.org/1999/xlink" width="131.61799" height="118.89693" viewBox="0,0,131.61799,118.89693"><g transform="translate(-172.95023,-108.6316)"><g data-paper-data="{&quot;isPaintingLayer&quot;:true}" fill="none" fill-rule="nonzero" stroke="none" stroke-width="1" stroke-linecap="butt" stroke-linejoin="miter" stroke-miterlimit="10" stroke-dasharray="" stroke-dashoffset="0" font-family="none" font-weight="none" font-size="none" text-anchor="none" style="mix-blend-mode: normal"><g id="tail"><path d="M175.44209,167.45479c-3.90357,-4.85408 -3.13713,-11.95027 1.7119,-15.84978c4.84903,-3.89951 11.94441,-3.12567 15.84799,1.72842c3.90357,4.85408 3.13713,11.95027 -1.7119,15.84978c-4.84903,3.89951 -11.94441,3.12567 -15.84799,-1.72842z" id="Oval" fill="#ffffff"/><path d="M179.7171,163.5789c0.0901,-0.2706 0.4507,-0.5413 0.8112,-0.4511c0.5408,0.1805 1.0816,0.4511 1.6224,0.6316c0.3605,0.0902 0.5407,0.4511 0.4506,0.812c-0.0901,0.2707 -0.4506,0.5414 -0.8112,0.4512c-0.5408,-0.1805 -1.0815,-0.4512 -1.6223,-0.6316c-0.3606,-0.0902 -0.631,-0.3609 -0.4507,-0.8121z" id="Shape" fill="#cbd7d4"/><path d="M178.0046,167.0075c0,-0.2707 0.2704,-0.6316 0.6309,-0.6316c0.6309,0 1.1717,0.0903 1.8027,0.0903c0.8111,0.0902 0.8111,1.3533 0,1.3533c-0.631,0 -1.1718,0 -1.8027,-0.0902c-0.3605,0 -0.6309,-0.2707 -0.6309,-0.7218z" id="Shape" fill="#cbd7d4"/><path d="M182.2408,158.1654c0.1803,0.2707 0.4506,0.6316 0.721,0.9023c0.1803,0.1804 0.3606,0.3609 0.5408,0.5413c0.0902,0.0902 0.1803,0.1805 0.2704,0.2707c0,0 0.1803,0.1805 0.0902,0.0902c0.3605,0.1805 0.4506,0.5414 0.2704,0.9023c-0.1803,0.3609 -0.631,0.4511 -0.9014,0.2707c-0.8111,-0.5414 -1.5322,-1.4437 -2.073,-2.2557c-0.4506,-0.7218 0.7211,-1.4436 1.0816,-0.7218z" id="Shape" fill="#cbd7d4"/><path d="M186.1164,156.6316c0.3606,0.6316 0.8112,1.2631 1.1718,1.8947c0.4506,0.7218 -0.7211,1.3534 -1.1718,0.6316c-0.4506,-0.6316 -0.8111,-1.2632 -1.1717,-1.8947c-0.4506,-0.7218 0.7211,-1.3534 1.1717,-0.6316z" id="Shape" fill="#cbd7d4"/><path d="M190.5329,155.8195c-0.0901,0.5414 0,1.173 0.2704,1.7143c0.0901,0.3609 0.0901,0.7218 -0.2704,0.9023c-0.2704,0.0902 -0.7211,0.0902 -0.9013,-0.2707c-0.3605,-0.7218 -0.5408,-1.5338 -0.4507,-2.3459c0.0902,-0.812 1.4421,-0.812 1.352,0z" id="Shape" fill="#cbd7d4"/><path d="M193.4171,158.9774c0,0.5414 0,0.9925 0.0901,1.5339c0.0902,0.3609 -0.0901,0.7218 -0.4506,0.812c-0.3605,0.0902 -0.7211,-0.0902 -0.8112,-0.4511c-0.0901,-0.6316 -0.0901,-1.2632 -0.0901,-1.8948c0,-0.812 1.3519,-0.812 1.2618,0z" id="Shape" fill="#cbd7d4"/><path d="M176.5625,157.6241c0.6309,0.6315 1.352,1.0827 1.9829,1.7142c0.6309,0.5414 -0.2704,1.4437 -0.9013,0.9023c-0.6309,-0.6316 -1.352,-1.0827 -1.9829,-1.7143c-0.6309,-0.6316 0.3605,-1.5338 0.9013,-0.9022z" id="Shape" fill="#cbd7d4"/><path d="M178.8158,153.7444c0.3605,0.6315 0.8112,1.2631 1.2618,1.9849c0.3606,0.7218 -0.721,1.3534 -1.1717,0.6316c-0.3605,-0.6316 -0.8112,-1.3534 -1.2618,-1.985c-0.4507,-0.7218 0.6309,-1.3533 1.1717,-0.6315z" id="Shape" fill="#cbd7d4"/><path d="M182.8717,151.8496c0.4507,0.9925 0.8112,2.0752 1.4421,2.9775c0.4507,0.7218 -0.721,1.3534 -1.1717,0.6315c-0.5408,-0.9022 -0.9914,-1.9849 -1.4421,-2.9774c-0.3605,-0.7218 0.8112,-1.3534 1.1717,-0.6316z" id="Shape" fill="#cbd7d4"/><path d="M186.3868,150.6767c0.2704,-0.0902 0.7211,-0.0902 0.9014,0.2707c0.0901,0.2706 0.1802,0.4511 0.2704,0.7218c0.0901,0.3609 0.0901,0.7218 -0.2704,0.9022c-0.2704,0.0903 -0.7211,0.0903 -0.9014,-0.2706c-0.0901,-0.2707 -0.1802,-0.4512 -0.2704,-0.7219c-0.0901,-0.2706 -0.0901,-0.7218 0.2704,-0.9022z" id="Shape" fill="#cbd7d4"/><path d="M173.5882,162.9474c0.0901,-0.2707 0.4506,-0.5414 0.8111,-0.4512c0.631,0.2707 1.352,0.4512 1.9829,0.7218c0.3606,0.0903 0.5408,0.4512 0.4507,0.8121c-0.0901,0.2707 -0.4507,0.5413 -0.8112,0.4511c-0.6309,-0.2707 -1.352,-0.4511 -1.9829,-0.7218c-0.3605,-0.0902 -0.6309,-0.3609 -0.4506,-0.812z" id="Shape" fill="#cbd7d4"/><path d="M183.773,164.8421c0.0902,-0.2707 0.4507,-0.5413 0.8112,-0.4511c0.7211,0.2707 1.352,0.6316 2.073,0.9925c0.8112,0.4511 0.0902,1.5338 -0.6309,1.1729c-0.5408,-0.2707 -1.0816,-0.6316 -1.7125,-0.9023c-0.2704,-0.1804 -0.5408,-0.4511 -0.5408,-0.812z" id="Shape" fill="#cbd7d4"/><path d="M182.8717,168.4511c0.0901,-0.3609 0.4507,-0.5413 0.8112,-0.4511c0.2704,0.0902 0.4507,0.0902 0.721,0.0902c0.8112,0 0.8112,1.3534 0,1.3534c-0.3605,0 -0.721,-0.0902 -1.0815,-0.1804c-0.2704,-0.1805 -0.5408,-0.4512 -0.4507,-0.8121z" id="Shape" fill="#cbd7d4"/><path d="M187.2882,161.5038c0.1802,0.7218 0.5407,1.4436 0.8111,2.0751c0.3606,0.7219 -0.8111,1.3534 -1.1717,0.6316c-0.3605,-0.7218 -0.721,-1.5338 -0.9013,-2.3458c-0.1802,-0.8121 1.0816,-1.0827 1.2619,-0.3609z" id="Shape" fill="#cbd7d4"/><path d="M189.8118,160.8722c0.3606,-0.0902 0.7211,0.0902 0.8112,0.4511c0.0902,0.3609 0.0902,0.6316 0.1803,0.9925c0.0901,0.3609 -0.0901,0.7218 -0.4507,0.812c-0.3605,0.0902 -0.721,-0.0902 -0.8112,-0.4511c-0.0901,-0.3609 -0.0901,-0.6316 -0.1802,-0.9925c-0.0901,-0.3609 0.0901,-0.7218 0.4506,-0.812z" id="Shape" fill="#cbd7d4"/></g><path d="M264.6211,169.8947c13.3394,-1.624 33.7092,1.5339 34.971,22.376c1.352,23.2782 -25.6875,32.6616 -29.3829,32.1203c-3.6954,-0.5414 -9.8243,-4.1504 -11.4467,-5.8647c-5.3178,-5.594 -16.1336,-4.6917 -23.3441,-4.6015c-12.6184,0.0902 -49.6625,3.609 -55.7914,-14.797c-7.4809,-22.2857 3.7855,-37.5338 15.773,-42.406c13.7,-5.7744 36.4132,3.8797 43.3533,7.4887c0,0 12.5283,7.2181 25.8678,5.6842z" id="Shape" fill="#ffffff"/><g id="paw_back"><path d="M182.7816,218.1654c-4.4165,-5.594 2.8842,-5.6842 3.0645,-10.4662c0.1802,-4.7819 -17.125,-4.2406 -10.5454,-26.6165c3.6052,-12.3609 17.3052,-13.985 24.6059,-12.7218c9.8243,1.7143 24.1552,11.3684 27.4901,20.391c2.6138,7.218 4.5967,16.8722 -1.5322,21.3834c-5.8586,4.2406 -11.3566,3.1579 -16.9448,5.2331c3.6954,2.6166 11.0862,0.3609 15.6829,0.9925c1.4421,0.1805 4.1461,-0.2707 6.2191,0.3609c2.4336,0.7218 4.0559,2.8872 5.3178,4.3308c3.1546,3.6993 -3.6954,3.2482 -6.129,3.2482c13.6099,5.7744 -20.0993,2.3458 -24.2454,0.812c-0.0901,-0.0902 -21.1809,-4.6015 -22.9835,-6.9474z" id="Shape" fill="#ffffff"/><g id="Group" fill="#b5c5c1"><path d="M185.3053,169.8947c2.794,-1.8045 6.219,-2.9774 10.5454,-3.0676c11.3565,-0.2707 31.4559,9.5639 32.898,24.9924c0.0901,0.6316 0.0901,1.2632 0.1802,1.8046c-0.4506,-1.7143 -0.9914,-3.4286 -1.5322,-4.9624c-3.3349,-9.0226 -17.6658,-18.6767 -27.4901,-20.391c-3.8757,-0.6316 -9.554,-0.4512 -14.6013,1.624z" id="Shape"/><path d="M228.298,222.5865c0.9915,0.2706 2.0731,0.4511 2.9744,0.9924c0.9914,0.5414 1.7125,1.3534 2.3434,2.2557c0.4506,0.6316 -0.6309,1.2631 -1.1717,0.6316c-1.1717,-1.6241 -2.6138,-2.1654 -4.5066,-2.6166c-0.8112,-0.1804 -0.4507,-1.4436 0.3605,-1.2631z" id="Shape"/></g></g><g id="paw_front"><path d="M243.5303,218.0752c-8.7428,-7.3083 -3.6053,-15.5188 4.7769,-19.579c-6.85,4.782 -11.2664,12.5414 -4.7769,19.579z" id="Shape" fill="#b5c5c1"/><path d="M259.7539,225.8346c-3.9657,-0.7218 -7.7513,-1.8045 -11.2664,-3.8797c-21.0908,-12.9023 4.5066,-30.5865 15.773,-28.0602c8.8329,1.985 6.2191,9.203 9.1934,13.8948c2.4336,3.8797 11.1764,3.5188 11.1764,3.5188c0,0 15.5927,3.8797 16.8546,4.8722c6.219,4.6917 1.6223,9.2932 -1.5323,7.1278c2.9744,3.0676 -1.5322,2.0752 -3.3348,0.7218c0,0 -10.0948,-3.2481 -11.7171,-2.797c-4.5066,1.1729 -16.4941,6.1353 -25.1468,4.6015z" id="Shape" fill="#ffffff"/><path d="M300.223,223.7594c-0.8112,-1.6241 -2.5237,-2.7068 -4.3263,-2.9774c-0.8112,-0.0903 -0.4506,-1.3534 0.3605,-1.2632c2.1632,0.2707 4.1461,1.7143 5.1375,3.609c0.3606,0.7218 -0.721,1.3534 -1.1717,0.6316z" id="Shape" fill="#b5c5c1"/></g><g id="head_x2B_ears"><g id="ears" fill="#ffffff"><path d="M283.6388,182.6165c-10.3651,-10.1052 -17.5756,-24.812 -24.696,-36.9924c-4.8671,-8.2106 -21.0908,-34.0151 -15.8632,-36.9925c0,0 19.0178,13.4436 26.2283,23.3684c6.5796,9.1128 20.0092,30.4962 17.3053,41.1429z" id="Shape"/><path d="M276.7888,173.5038c-14.5112,2.3458 -33.4388,-12.2707 -44.7954,-21.6542c-7.7513,-6.406 -16.5842,-20.2105 -20.2796,-29.0526c-3.2447,-7.7594 27.4,6.3158 35.4217,12.6316c13.7,10.7368 29.0224,21.2932 36.0527,36.4511z" id="Shape"/></g><g id="head"><path d="M297.7895,196.9624c-6.3092,5.2331 -16.5842,4.5113 -24.8763,2.9774c-16.7645,-3.0676 -24.8764,-32.2105 -4.3264,-42.0451c18.9277,-9.1127 35.5119,15.7895 34.5204,29.5038c-0.721,9.7444 -5.3177,9.5639 -5.3177,9.5639z" id="Shape" fill="#b5c5c1"/><path d="M271.2007,199.0376c-13.1593,-8.6617 -21.2711,-30.3158 -2.2533,-41.2331c18.8375,-10.9173 34.8809,14.1654 34.7006,29.6842c0,0 -0.8112,10.2857 -9.1934,13.5339c-9.8243,3.7894 -16.7645,2.2556 -23.2539,-1.985z" id="Shape" fill="#ffffff"/><g id="face"><g id="Group"><g id="Shape" fill="#3c4f45"><path d="M295.6263,186.2256c0.4507,0.1804 1.352,0.4511 1.8928,0.1804c0.3605,-0.2707 0.2704,-0.812 0.3605,-1.1729c0.2704,-0.9023 1.5322,-0.5414 1.352,0.3609c-0.1803,0.812 -0.1803,1.5338 -0.9915,1.9849c-0.9013,0.4512 -2.073,0.1805 -2.9743,-0.0902c-0.8112,-0.3609 -0.4507,-1.624 0.3605,-1.2631z"/><path d="M298.2401,186.8571c0.631,1.5339 0.9915,3.2482 0.9915,4.8722c0,0.9023 -1.352,0.9023 -1.352,0c0,-1.5338 -0.3605,-3.0676 -0.9013,-4.5113c-0.2704,-0.812 1.0816,-1.1729 1.2618,-0.3609z"/><path d="M295.8967,191.7293c1.0816,0.7218 4.2362,-0.1804 4.2362,-1.624c0,-0.9023 1.352,-0.9023 1.352,0c-0.0902,2.5263 -4.3263,4.1503 -6.3092,2.8872c-0.7211,-0.4511 0,-1.6241 0.721,-1.2632z"/></g><path d="M284.8105,187.5789c-1.6223,0.3609 -3.2447,0.9925 -4.5967,1.985c-0.6309,0.4511 -1.2618,-0.6316 -0.6309,-1.0827c1.4421,-0.9925 3.1546,-1.7143 4.8671,-2.0752c0.8112,-0.0902 1.1717,1.0827 0.3605,1.1729z" id="Shape" fill="#b5c5c1"/><path d="M283.5487,191.7293c-1.0816,0.6316 -2.1632,1.2632 -3.1546,2.0752c-0.6309,0.5414 -1.5323,-0.3609 -0.9013,-0.9022c1.0815,-0.9023 2.2533,-1.5339 3.425,-2.2557c0.721,-0.4511 1.3519,0.6316 0.6309,1.0827z" id="Shape" fill="#b5c5c1"/><path d="M287.7849,191.6391c-0.9013,1.1729 -1.8027,2.3459 -2.6138,3.5188c-0.4507,0.6316 -1.5323,0 -1.0816,-0.6316c0.8112,-1.1729 1.7125,-2.3458 2.6138,-3.5188c0.4506,-0.6316 1.5322,0 1.0816,0.6316z" id="Shape" fill="#b5c5c1"/></g><path d="M273.2737,179.9098c1.5322,0.9022 3.3349,1.3534 4.6868,-0.1805c0.6309,-0.6316 1.5323,0.3609 0.9915,0.9925c-1.7125,2.0752 -4.2362,1.6241 -6.3092,0.3609c-0.7211,-0.4511 0,-1.6241 0.6309,-1.1729z" id="Shape" fill="#3c4f45"/><path d="M269.398,174.3158c1.4421,-0.4511 3.0645,-0.2707 4.5967,-0.2707c0.8112,0 0.8112,1.2632 0,1.2632c-1.4421,0 -2.9743,-0.1805 -4.3263,0.2706c-0.8112,0.2707 -1.1717,-0.9022 -0.2704,-1.2631z" id="Shape" fill="#b5c5c1"/></g></g></g></g></g></svg>